<mxfile host="app.diagrams.net" agent="Mozilla/5.0 (Windows NT 10.0; Win64; x64) AppleWebKit/537.36 (KHTML, like Gecko) Chrome/133.0.0.0 Safari/537.36" version="26.0.13">
  <diagram id="R2lEEEUBdFMjLlhIrx00" name="Page-1">
    <mxGraphModel dx="1050" dy="563" grid="1" gridSize="10" guides="1" tooltips="1" connect="1" arrows="1" fold="1" page="1" pageScale="1" pageWidth="850" pageHeight="1100" math="0" shadow="0" extFonts="Permanent Marker^https://fonts.googleapis.com/css?family=Permanent+Marker">
      <root>
        <mxCell id="0" />
        <mxCell id="1" parent="0" />
        <mxCell id="YTdFghRX5OlC11gK1PQy-9" style="edgeStyle=orthogonalEdgeStyle;rounded=0;orthogonalLoop=1;jettySize=auto;html=1;entryX=0;entryY=0.5;entryDx=0;entryDy=0;endArrow=none;startFill=0;" edge="1" parent="1" source="YTdFghRX5OlC11gK1PQy-1" target="YTdFghRX5OlC11gK1PQy-4">
          <mxGeometry relative="1" as="geometry">
            <mxPoint x="100" y="100" as="targetPoint" />
            <Array as="points">
              <mxPoint x="100" y="105" />
            </Array>
          </mxGeometry>
        </mxCell>
        <mxCell id="YTdFghRX5OlC11gK1PQy-1" value="USUARIO" style="html=1;dashed=0;whiteSpace=wrap;" vertex="1" parent="1">
          <mxGeometry x="50" y="165" width="100" height="45" as="geometry" />
        </mxCell>
        <mxCell id="YTdFghRX5OlC11gK1PQy-2" value="EVENTO" style="html=1;dashed=0;whiteSpace=wrap;" vertex="1" parent="1">
          <mxGeometry x="375" y="165" width="100" height="50" as="geometry" />
        </mxCell>
        <mxCell id="YTdFghRX5OlC11gK1PQy-3" value="ORGANIZADOR" style="html=1;dashed=0;whiteSpace=wrap;" vertex="1" parent="1">
          <mxGeometry x="710" y="165" width="100" height="50" as="geometry" />
        </mxCell>
        <mxCell id="YTdFghRX5OlC11gK1PQy-10" style="edgeStyle=orthogonalEdgeStyle;rounded=0;orthogonalLoop=1;jettySize=auto;html=1;entryX=0.5;entryY=0;entryDx=0;entryDy=0;endArrow=none;startFill=0;" edge="1" parent="1" source="YTdFghRX5OlC11gK1PQy-4" target="YTdFghRX5OlC11gK1PQy-2">
          <mxGeometry relative="1" as="geometry">
            <mxPoint x="430" y="105" as="targetPoint" />
          </mxGeometry>
        </mxCell>
        <mxCell id="YTdFghRX5OlC11gK1PQy-4" value="inscribe" style="shape=rhombus;html=1;dashed=0;whiteSpace=wrap;perimeter=rhombusPerimeter;" vertex="1" parent="1">
          <mxGeometry x="220" y="80" width="60" height="50" as="geometry" />
        </mxCell>
        <mxCell id="YTdFghRX5OlC11gK1PQy-12" style="edgeStyle=orthogonalEdgeStyle;rounded=0;orthogonalLoop=1;jettySize=auto;html=1;entryX=1;entryY=0.5;entryDx=0;entryDy=0;endArrow=none;startFill=0;" edge="1" parent="1" source="YTdFghRX5OlC11gK1PQy-5" target="YTdFghRX5OlC11gK1PQy-2">
          <mxGeometry relative="1" as="geometry" />
        </mxCell>
        <mxCell id="YTdFghRX5OlC11gK1PQy-13" style="edgeStyle=orthogonalEdgeStyle;rounded=0;orthogonalLoop=1;jettySize=auto;html=1;entryX=0;entryY=0.5;entryDx=0;entryDy=0;endArrow=none;startFill=0;" edge="1" parent="1" source="YTdFghRX5OlC11gK1PQy-5" target="YTdFghRX5OlC11gK1PQy-3">
          <mxGeometry relative="1" as="geometry" />
        </mxCell>
        <mxCell id="YTdFghRX5OlC11gK1PQy-5" value="organiza" style="shape=rhombus;html=1;dashed=0;whiteSpace=wrap;perimeter=rhombusPerimeter;" vertex="1" parent="1">
          <mxGeometry x="560" y="165" width="60" height="50" as="geometry" />
        </mxCell>
        <mxCell id="YTdFghRX5OlC11gK1PQy-11" style="edgeStyle=orthogonalEdgeStyle;rounded=0;orthogonalLoop=1;jettySize=auto;html=1;entryX=0.5;entryY=1;entryDx=0;entryDy=0;endArrow=none;startFill=0;" edge="1" parent="1" source="YTdFghRX5OlC11gK1PQy-6" target="YTdFghRX5OlC11gK1PQy-2">
          <mxGeometry relative="1" as="geometry" />
        </mxCell>
        <mxCell id="YTdFghRX5OlC11gK1PQy-26" style="edgeStyle=orthogonalEdgeStyle;rounded=0;orthogonalLoop=1;jettySize=auto;html=1;entryX=0.5;entryY=1;entryDx=0;entryDy=0;endArrow=none;startFill=0;" edge="1" parent="1" source="YTdFghRX5OlC11gK1PQy-6" target="YTdFghRX5OlC11gK1PQy-1">
          <mxGeometry relative="1" as="geometry" />
        </mxCell>
        <mxCell id="YTdFghRX5OlC11gK1PQy-6" value="asiste" style="shape=rhombus;html=1;dashed=0;whiteSpace=wrap;perimeter=rhombusPerimeter;" vertex="1" parent="1">
          <mxGeometry x="220" y="260" width="60" height="50" as="geometry" />
        </mxCell>
        <mxCell id="YTdFghRX5OlC11gK1PQy-15" value="(0,N)" style="text;html=1;align=center;verticalAlign=middle;resizable=0;points=[];autosize=1;strokeColor=none;fillColor=none;" vertex="1" parent="1">
          <mxGeometry x="370" y="130" width="50" height="30" as="geometry" />
        </mxCell>
        <mxCell id="YTdFghRX5OlC11gK1PQy-16" value="(1,N)" style="text;html=1;align=center;verticalAlign=middle;resizable=0;points=[];autosize=1;strokeColor=none;fillColor=none;" vertex="1" parent="1">
          <mxGeometry x="370" y="220" width="50" height="30" as="geometry" />
        </mxCell>
        <mxCell id="YTdFghRX5OlC11gK1PQy-17" value="N:M" style="text;html=1;align=center;verticalAlign=middle;resizable=0;points=[];autosize=1;strokeColor=none;fillColor=none;" vertex="1" parent="1">
          <mxGeometry x="225" y="48" width="50" height="30" as="geometry" />
        </mxCell>
        <mxCell id="YTdFghRX5OlC11gK1PQy-18" value="N:M" style="text;html=1;align=center;verticalAlign=middle;resizable=0;points=[];autosize=1;strokeColor=none;fillColor=none;" vertex="1" parent="1">
          <mxGeometry x="225" y="300" width="50" height="30" as="geometry" />
        </mxCell>
        <mxCell id="YTdFghRX5OlC11gK1PQy-19" value="(0,N)" style="text;html=1;align=center;verticalAlign=middle;resizable=0;points=[];autosize=1;strokeColor=none;fillColor=none;" vertex="1" parent="1">
          <mxGeometry x="100" y="135" width="50" height="30" as="geometry" />
        </mxCell>
        <mxCell id="YTdFghRX5OlC11gK1PQy-20" value="(0,N)" style="text;html=1;align=center;verticalAlign=middle;resizable=0;points=[];autosize=1;strokeColor=none;fillColor=none;" vertex="1" parent="1">
          <mxGeometry x="100" y="210" width="50" height="30" as="geometry" />
        </mxCell>
        <mxCell id="YTdFghRX5OlC11gK1PQy-21" value="(1,N)" style="text;html=1;align=center;verticalAlign=middle;resizable=0;points=[];autosize=1;strokeColor=none;fillColor=none;" vertex="1" parent="1">
          <mxGeometry x="475" y="160" width="50" height="30" as="geometry" />
        </mxCell>
        <mxCell id="YTdFghRX5OlC11gK1PQy-22" value="(0,N)" style="text;html=1;align=center;verticalAlign=middle;resizable=0;points=[];autosize=1;strokeColor=none;fillColor=none;" vertex="1" parent="1">
          <mxGeometry x="660" y="160" width="50" height="30" as="geometry" />
        </mxCell>
        <mxCell id="YTdFghRX5OlC11gK1PQy-23" value="N:M" style="text;html=1;align=center;verticalAlign=middle;resizable=0;points=[];autosize=1;strokeColor=none;fillColor=none;" vertex="1" parent="1">
          <mxGeometry x="565" y="138" width="50" height="30" as="geometry" />
        </mxCell>
        <mxCell id="YTdFghRX5OlC11gK1PQy-25" value="ยบ" style="endArrow=classic;html=1;rounded=0;curved=1;" edge="1" parent="1">
          <mxGeometry width="50" height="50" relative="1" as="geometry">
            <mxPoint x="130" y="290" as="sourcePoint" />
            <mxPoint x="130" y="104" as="targetPoint" />
            <Array as="points">
              <mxPoint x="220" y="190" />
            </Array>
          </mxGeometry>
        </mxCell>
        <mxCell id="YTdFghRX5OlC11gK1PQy-30" style="edgeStyle=orthogonalEdgeStyle;rounded=0;orthogonalLoop=1;jettySize=auto;html=1;entryX=0.5;entryY=1;entryDx=0;entryDy=0;endArrow=none;startFill=0;" edge="1" parent="1" source="YTdFghRX5OlC11gK1PQy-27" target="YTdFghRX5OlC11gK1PQy-29">
          <mxGeometry relative="1" as="geometry" />
        </mxCell>
        <mxCell id="YTdFghRX5OlC11gK1PQy-27" value="CATEGORIA" style="html=1;dashed=0;whiteSpace=wrap;" vertex="1" parent="1">
          <mxGeometry x="540" y="370" width="100" height="50" as="geometry" />
        </mxCell>
        <mxCell id="YTdFghRX5OlC11gK1PQy-29" value="pertenece" style="shape=rhombus;html=1;dashed=0;whiteSpace=wrap;perimeter=rhombusPerimeter;" vertex="1" parent="1">
          <mxGeometry x="410" y="320" width="70" height="50" as="geometry" />
        </mxCell>
        <mxCell id="YTdFghRX5OlC11gK1PQy-31" style="edgeStyle=orthogonalEdgeStyle;rounded=0;orthogonalLoop=1;jettySize=auto;html=1;entryX=0.7;entryY=0.975;entryDx=0;entryDy=0;entryPerimeter=0;endArrow=none;startFill=0;" edge="1" parent="1" source="YTdFghRX5OlC11gK1PQy-29" target="YTdFghRX5OlC11gK1PQy-2">
          <mxGeometry relative="1" as="geometry" />
        </mxCell>
        <mxCell id="YTdFghRX5OlC11gK1PQy-32" value="(1,N)" style="text;html=1;align=center;verticalAlign=middle;resizable=0;points=[];autosize=1;strokeColor=none;fillColor=none;" vertex="1" parent="1">
          <mxGeometry x="490" y="360" width="50" height="30" as="geometry" />
        </mxCell>
        <mxCell id="YTdFghRX5OlC11gK1PQy-33" value="(1,N)" style="text;html=1;align=center;verticalAlign=middle;resizable=0;points=[];autosize=1;strokeColor=none;fillColor=none;" vertex="1" parent="1">
          <mxGeometry x="440" y="215" width="50" height="30" as="geometry" />
        </mxCell>
        <mxCell id="YTdFghRX5OlC11gK1PQy-34" value="N:M" style="text;html=1;align=center;verticalAlign=middle;resizable=0;points=[];autosize=1;strokeColor=none;fillColor=none;" vertex="1" parent="1">
          <mxGeometry x="360" y="330" width="50" height="30" as="geometry" />
        </mxCell>
      </root>
    </mxGraphModel>
  </diagram>
</mxfile>
